<?xml version="1.0" encoding="utf-8"?>
<!-- Generator: Adobe Illustrator 22.0.1, SVG Export Plug-In . SVG Version: 6.00 Build 0)  -->
<svg version="1.1" id="Camada_1" xmlns="http://www.w3.org/2000/svg" xmlns:xlink="http://www.w3.org/1999/xlink" x="0px" y="0px"
	 viewBox="0 0 100 100" style="enable-background:new 0 0 100 100;" xml:space="preserve">
<style type="text/css">
	.st0{fill:none;stroke:#8B80F9;stroke-width:2;stroke-miterlimit:10;}
	.st1{fill:none;stroke:#A4A2F4;stroke-width:2;stroke-miterlimit:10;}
	.st2{fill:none;stroke:#8B80F9;stroke-miterlimit:10;}
</style>
<path class="st0" d="M37.7,48.2c8.9-6.8,17.5-14.1,26.4-20.9c-3.8-2.4-8.3-3.8-13.2-3.8c-13.5,0-24.5,11-24.5,24.5
	c0,2.7,0.4,5.3,1.2,7.7C31.1,53.2,34.4,50.8,37.7,48.2z"/>
<path class="st1" d="M42.8,56.9c-3.3,2.5-6.7,5-10,7.4c4.5,5,11,8.2,18.3,8.2c13.5,0,24.5-11,24.5-24.5c0-5-1.5-9.7-4.1-13.6
	C61.6,41.6,52.4,49.6,42.8,56.9z"/>
<path class="st1" d="M37.7,48.2c7.9-6,15.5-12.4,23.3-18.5c-3-1.6-6.4-2.6-10-2.6c-11.5,0-20.8,9.3-20.8,20.8c0,1.9,0.3,3.6,0.7,5.4
	C33.2,51.7,35.5,50,37.7,48.2z"/>
<path class="st0" d="M42.8,56.9c-2.3,1.8-4.7,3.5-7,5.3c3.8,4.1,9.2,6.7,15.3,6.7c11.5,0,20.8-9.3,20.8-20.8c0-4.2-1.3-8.1-3.4-11.4
	C59.8,43.2,51.4,50.3,42.8,56.9z"/>
<rect x="49" y="19" class="st2" width="3" height="4"/>
<path class="st2" d="M52.5,19h-4c-0.8,0-1.5-0.7-1.5-1.5l0,0c0-0.8,0.7-1.5,1.5-1.5h4c0.8,0,1.5,0.7,1.5,1.5l0,0
	C54,18.3,53.3,19,52.5,19z"/>
</svg>
